<svg width="1441" height="868" viewBox="0 0 1441 868" fill="none" xmlns="http://www.w3.org/2000/svg">
<g clip-path="url(#clip0_48_240)">
<rect width="1441" height="868" fill="#091E54"/>
<ellipse cx="850.5" cy="40" rx="111.5" ry="93" fill="#D9D9D9" fill-opacity="0.1"/>
<path d="M378.325 62.6292L382 60.4125L385.675 62.6584L384.713 58.4584L387.95 55.6584L383.692 55.2792L382 51.3125L380.308 55.25L376.05 55.6292L379.288 58.4584L378.325 62.6292ZM376.546 65.0769L377.993 58.8784L373.182 54.711L379.519 54.1627L382 48.3165L384.482 54.1615L390.817 54.7099L386.006 58.8772L387.454 65.0757L382 61.7857L376.546 65.0769Z" fill="#FAAF11" fill-opacity="0.89"/>
<path d="M1144.33 73.6292L1148 71.4125L1151.68 73.6584L1150.71 69.4584L1153.95 66.6584L1149.69 66.2792L1148 62.3125L1146.31 66.25L1142.05 66.6292L1145.29 69.4584L1144.33 73.6292ZM1142.55 76.0769L1143.99 69.8784L1139.18 65.711L1145.52 65.1627L1148 59.3165L1150.48 65.1615L1156.82 65.7099L1152.01 69.8772L1153.45 76.0757L1148 72.7857L1142.55 76.0769Z" fill="#AB0606"/>
<path d="M15.325 749.629L19 747.412L22.675 749.658L21.7125 745.458L24.95 742.658L20.6917 742.279L19 738.312L17.3084 742.25L13.05 742.629L16.2875 745.458L15.325 749.629ZM13.5459 752.077L14.9925 745.878L10.1824 741.711L16.5185 741.163L19 735.316L21.4815 741.161L27.8165 741.71L23.0064 745.877L24.4542 752.076L19 748.786L13.5459 752.077Z" fill="#FAAF11" fill-opacity="0.89"/>
<path d="M1052.33 725.629L1056 723.412L1059.68 725.658L1058.71 721.458L1061.95 718.658L1057.69 718.279L1056 714.312L1054.31 718.25L1050.05 718.629L1053.29 721.458L1052.33 725.629ZM1050.55 728.077L1051.99 721.878L1047.18 717.711L1053.52 717.163L1056 711.316L1058.48 717.161L1064.82 717.71L1060.01 721.877L1061.45 728.076L1056 724.786L1050.55 728.077Z" fill="#AB0606"/>
<path d="M1418.32 751.629L1422 749.413L1425.67 751.658L1424.71 747.458L1427.95 744.658L1423.69 744.279L1422 740.313L1420.31 744.25L1416.05 744.629L1419.29 747.458L1418.32 751.629ZM1416.55 754.077L1417.99 747.878L1413.18 743.711L1419.52 743.163L1422 737.317L1424.48 743.162L1430.82 743.71L1426.01 747.877L1427.45 754.076L1422 750.786L1416.55 754.077Z" fill="#AB0606"/>
<path d="M24.325 31.6292L28 29.4125L31.675 31.6584L30.7125 27.4584L33.95 24.6584L29.6917 24.2792L28 20.3125L26.3084 24.25L22.05 24.6292L25.2875 27.4584L24.325 31.6292ZM22.5459 34.0769L23.9925 27.8784L19.1824 23.711L25.5185 23.1627L28 17.3165L30.4815 23.1615L36.8165 23.7099L32.0064 27.8772L33.4542 34.0757L28 30.7857L22.5459 34.0769Z" fill="#AB0606"/>
<path d="M1415.32 31.6292L1419 29.4125L1422.67 31.6584L1421.71 27.4584L1424.95 24.6584L1420.69 24.2792L1419 20.3125L1417.31 24.25L1413.05 24.6292L1416.29 27.4584L1415.32 31.6292ZM1413.55 34.0769L1414.99 27.8784L1410.18 23.711L1416.52 23.1627L1419 17.3165L1421.48 23.1615L1427.82 23.7099L1423.01 27.8772L1424.45 34.0757L1419 30.7857L1413.55 34.0769Z" fill="#FAAF11" fill-opacity="0.89"/>
<ellipse cx="1208.22" cy="88.6069" rx="45.0651" ry="54.6069" fill="#D9D9D9" fill-opacity="0.1"/>
<ellipse cx="437.456" cy="744.981" rx="112.404" ry="136.517" fill="#D9D9D9" fill-opacity="0.1"/>
<ellipse cx="103.012" cy="106.999" rx="103.012" ry="106.999" transform="matrix(0.707827 -0.706385 0.558824 0.829286 1165.94 618.635)" fill="#D9D9D9" fill-opacity="0.1"/>
<ellipse cx="101.868" cy="105.811" rx="101.868" ry="105.811" transform="matrix(0.707827 -0.706385 0.558824 0.829286 1075.83 710.212)" fill="#D9D9D9" fill-opacity="0.1"/>
<ellipse cx="535.874" cy="113.18" rx="24.3455" ry="30.0338" fill="#D9D9D9" fill-opacity="0.1"/>
<ellipse cx="76.9359" cy="196.729" rx="98.9359" ry="120.135" fill="#D9D9D9" fill-opacity="0.1"/>
<path d="M1113.33 596.629L1117 594.412L1120.68 596.658L1119.71 592.458L1122.95 589.658L1118.69 589.279L1117 585.312L1115.31 589.25L1111.05 589.629L1114.29 592.458L1113.33 596.629ZM1111.55 599.077L1112.99 592.878L1108.18 588.711L1114.52 588.163L1117 582.316L1119.48 588.161L1125.82 588.71L1121.01 592.877L1122.45 599.076L1117 595.786L1111.55 599.077Z" fill="#AB0606"/>
<path d="M966.325 291.629L970 289.413L973.675 291.658L972.713 287.458L975.95 284.658L971.692 284.279L970 280.313L968.308 284.25L964.05 284.629L967.288 287.458L966.325 291.629ZM964.546 294.077L965.993 287.878L961.182 283.711L967.519 283.163L970 277.317L972.482 283.162L978.817 283.71L974.006 287.877L975.454 294.076L970 290.786L964.546 294.077Z" fill="#AB0606"/>
<path d="M750.325 659.629L754 657.412L757.675 659.658L756.713 655.458L759.95 652.658L755.692 652.279L754 648.312L752.308 652.25L748.05 652.629L751.288 655.458L750.325 659.629ZM748.546 662.077L749.993 655.878L745.182 651.711L751.519 651.163L754 645.316L756.482 651.161L762.817 651.71L758.006 655.877L759.454 662.076L754 658.786L748.546 662.077Z" fill="#FAAF11" fill-opacity="0.89"/>
<path d="M1262.46 347.038L1265.72 344.618L1268.98 347.07L1268.13 342.483L1271 339.425L1267.22 339.011L1265.72 334.679L1264.22 338.979L1260.44 339.393L1263.31 342.483L1262.46 347.038ZM1260.88 349.712L1262.16 342.942L1257.89 338.391L1263.52 337.792L1265.72 331.407L1267.92 337.791L1273.55 338.389L1269.28 342.941L1270.56 349.71L1265.72 346.117L1260.88 349.712Z" fill="#FAAF11" fill-opacity="0.89"/>
<path d="M77.2985 400.553L80.5619 398.132L83.8252 400.585L82.9705 395.998L85.8453 392.94L82.064 392.526L80.5619 388.194L79.0597 392.494L75.2784 392.908L78.1532 395.998L77.2985 400.553ZM75.7187 403.226L77.0033 396.457L72.7319 391.905L78.3583 391.307L80.5619 384.922L82.7654 391.305L88.3907 391.904L84.1194 396.455L85.4051 403.225L80.5619 399.632L75.7187 403.226Z" fill="#AB0606"/>
</g>
<defs>
<clipPath id="clip0_48_240">
<rect width="1441" height="868" fill="white"/>
</clipPath>
</defs>
</svg>
